<?xml version="1.0" encoding="utf-8"?>
<!-- Generator: Adobe Illustrator 22.0.0, SVG Export Plug-In . SVG Version: 6.00 Build 0)  -->
<svg version="1.1" id="Layer_1" xmlns="http://www.w3.org/2000/svg" xmlns:xlink="http://www.w3.org/1999/xlink" x="0px" y="0px"
	 viewBox="0 0 1400 400" enable-background="new 0 0 1400 400" xml:space="preserve">
<path fill="#D11E47" d="M535.007,392.054c-4.693,0-8.649-1.435-11.739-4.261c-3.038-2.811-4.939-6.755-5.689-11.719l-0.22-1.532
	l10.86-2.386l0.207,1.823c0.375,3.219,0.996,4.597,1.461,5.191c1.242,1.739,2.999,2.56,5.417,2.56c1.887,0,3.388-0.601,4.615-1.842
	c1.228-1.242,1.823-2.799,1.823-4.758c0-0.782-0.103-1.494-0.31-2.107c-0.207-0.615-0.517-1.164-0.956-1.687
	c-0.44-0.524-1.06-1.054-1.824-1.558c-0.814-0.53-1.81-1.048-2.947-1.539l-4.758-1.978c-7.421-3.129-11.17-7.861-11.17-14.067
	c0-4.195,1.629-7.751,4.835-10.556c3.115-2.779,7.046-4.189,11.675-4.189c6.296,0,11.273,3.071,14.79,9.121l0.815,1.416
	l-8.895,5.275l-0.841-1.448c-1.227-2.127-2.107-2.935-2.624-3.239c-0.867-0.543-1.952-0.801-3.31-0.801
	c-1.68,0-2.999,0.445-4.059,1.357c-1.022,0.86-1.486,1.843-1.486,3.109c0,1.668,1.461,3.109,4.357,4.299l4.925,2.017
	c4.254,1.719,7.435,3.885,9.477,6.438c2.082,2.644,3.142,5.883,3.142,9.639c0,4.997-1.693,9.193-5.055,12.463
	C544.174,390.386,539.959,392.054,535.007,392.054z M569.561,338.412h-10.77v52.743h10.77V338.412z M624.523,338.412h-10.77v27.52
	l-36.058-27.638v52.861h10.77v-26.67l36.058,27.783V338.412z M671.84,388.266l0.84-0.478v-13.543l-2.728,2.308
	c-1.15,0.975-2.262,1.81-3.322,2.508c-0.995,0.659-1.978,1.196-2.961,1.61c-1.604,0.743-3.62,1.125-6,1.125
	c-4.667,0-8.481-1.584-11.687-4.856c-3.219-3.27-4.783-7.188-4.783-11.965c0-4.849,1.564-8.823,4.809-12.172
	c3.181-3.342,6.982-4.965,11.636-4.965c4.189,0,8.326,1.694,12.321,5.023l2.715,2.269v-13.31l-0.827-0.478
	c-4.384-2.542-8.999-3.827-13.705-3.827c-8.585,0-15.709,3.245-21.152,9.651c-4.396,5.217-6.633,11.242-6.633,17.906
	c0,7.435,2.676,13.879,7.952,19.174c5.313,5.223,11.791,7.873,19.264,7.873C662.531,392.118,667.328,390.819,671.84,388.266z
	 M711.739,380.896h-19.82v-13.207h19.238v-10.323h-19.238V348.8h19.82v-10.324h-30.59v52.744h30.59V380.896z M759.862,337.488
	h-14.506l-6.037,10.324h9.774v42.42h10.77V337.488z M798.693,367.812c3.425-4.725,5.172-9.244,5.172-13.433
	c0-4.789-1.849-8.986-5.495-12.463c-3.647-3.491-7.99-5.262-12.903-5.262c-4.951,0-9.27,1.803-12.813,5.353
	c-3.543,3.522-5.327,7.835-5.327,12.825c0,4.694,1.616,8.766,4.823,12.095c3.05,3.187,6.697,4.893,10.834,5.075l-10.667,14.552
	l8.12,6.037L798.693,367.812z M791.014,348.955c1.538,1.526,2.275,3.31,2.275,5.456c0,2.146-0.737,3.937-2.275,5.462
	c-3,3.013-7.822,3.019-10.874-0.033c-1.513-1.506-2.237-3.322-2.237-5.552c0-2.062,0.737-3.808,2.275-5.334
	c1.5-1.506,3.258-2.237,5.391-2.237C787.729,346.719,789.513,347.45,791.014,348.955z M837.882,386.358
	c3.322-3.135,5.016-7.201,5.016-12.095c0-5.126-1.707-9.102-5.093-11.855c2.857-2.695,4.292-6.206,4.292-10.46
	c0-4.467-1.552-8.177-4.628-11.035c-3.038-2.85-6.981-4.292-11.727-4.292c-4.693,0-8.429,1.241-11.131,3.678
	c-2.651,2.411-4.435,6.167-5.261,11.183l-0.324,1.926h10.719l0.284-1.299c0.453-2.056,1.125-3.556,1.914-4.299
	c0.815-0.724,2.068-1.093,3.711-1.093c1.784,0,3.18,0.505,4.266,1.565c1.086,1.014,1.603,2.307,1.603,3.956
	c0,2.14-0.711,3.633-2.171,4.564c-0.362,0.24-1.629,0.789-5.469,0.789h-1.655v9.684h1.655c3.233,0,4.835,0.536,5.586,0.982
	c1.848,1.099,2.754,2.962,2.754,5.69c0,2.094-0.621,3.756-1.888,5.074c-1.266,1.287-2.844,1.914-4.809,1.914
	c-2.004,0-3.556-0.492-4.746-1.506c-1.163-1.008-1.926-2.521-2.237-4.493l-0.206-1.397h-10.46l0.18,1.816
	c0.336,3.491,1.19,6.302,2.534,8.372c3.206,4.848,8.119,7.304,14.635,7.304C830.319,391.033,834.572,389.462,837.882,386.358z
	 M878.727,386.358c3.322-3.135,5.016-7.201,5.016-12.095c0-5.126-1.707-9.102-5.093-11.855c2.857-2.695,4.292-6.206,4.292-10.46
	c0-4.467-1.552-8.177-4.628-11.035c-3.038-2.85-6.981-4.292-11.727-4.292c-4.693,0-8.429,1.241-11.131,3.678
	c-2.651,2.411-4.435,6.167-5.261,11.183l-0.324,1.926h10.719l0.284-1.299c0.453-2.056,1.124-3.556,1.914-4.299
	c0.815-0.724,2.068-1.093,3.711-1.093c1.784,0,3.18,0.505,4.266,1.565c1.086,1.014,1.603,2.307,1.603,3.956
	c0,2.14-0.711,3.633-2.171,4.564c-0.363,0.24-1.629,0.789-5.469,0.789h-1.655v9.684h1.655c3.233,0,4.835,0.536,5.586,0.982
	c1.848,1.099,2.754,2.962,2.754,5.69c0,2.094-0.621,3.756-1.888,5.074c-1.266,1.287-2.844,1.914-4.809,1.914
	c-2.004,0-3.556-0.492-4.746-1.506c-1.163-1.008-1.926-2.521-2.237-4.493l-0.206-1.397h-10.46l0.18,1.816
	c0.336,3.491,1.19,6.302,2.534,8.372c3.206,4.848,8.119,7.304,14.635,7.304C871.163,391.033,875.416,389.462,878.727,386.358z
	 M487.102,357.597H8.171v14.017h478.931V357.597z M1391.341,357.597H912.411v14.017h478.931V357.597z M204.728,131.638
	L163.885,9.649h-48.428L24.943,131.638h41.178l15.466-21.942h75.087l7.366,21.942H204.728z M148.009,84.059h-47.063l32.782-45.143
	L148.009,84.059z M418.422,131.638L443.887,9.649h-59.424l-58.524,78.235l-25.85-78.235h-57.838l-25.449,121.988h36.909
	l18.19-87.294l31.138,87.294h27.844l69.013-87.783l-18.313,87.783H418.422z M579.307,131.638l6.204-29.791h-97.389l3.834-18.525
	h90.178l5.1-24.525h-90.177l4.063-19.326h95.181l6.181-29.822H470.26l-25.415,121.988H579.307z M769.424,53.55
	c6.017-28.761,4.315-43.901-27.535-43.901H630.294l-25.442,121.988h37.205l6.605-31.736c12.483,0,25.171-0.344,37.818-0.344
	c6.752,0,13.636,0.212,20.503,0.556c16.219,1.014,13.284,9.238,10.35,23.332l-1.725,8.191h37.041l2.648-12.704
	c3.875-18.655,5.526-28.939-12.786-35.021C760.48,77.633,765.844,70.994,769.424,53.55z M733.258,54.448
	c-2.764,13.211-11.592,14.29-22.531,14.29h-55.533l6.09-29.267h56.612C729.448,39.472,735.988,41.369,733.258,54.448z
	 M815.841,131.638L841.25,9.649h-37.018L778.76,131.638H815.841z M1009.279,84.565h-37.393
	c-3.156,14.291-8.976,17.282-22.269,17.282c-10.89,0-21.925,0.344-32.782,0.344c-29.234,0-31.081-2.943-25.048-31.883
	c0.981-4.513,4.25-19.505,6.703-23.004c5.101-6.999,11.331-7.832,18.41-7.832c11.086,0,22.056-0.196,32.945-0.196
	c13.685,0,29.986-3.515,27.093,14.519h36.657l0.375-1.782c9.222-44.276-10.84-42.707-47.839-42.707
	c-14.193,0-28.466,0.344-42.657,0.344c-14.552,0-34.859,0.54-48.004,11.348c-16.726,13.603-18.933,39.207-22.645,56.947
	c-8.616,41.332-0.785,53.694,41.235,53.694h64.043C994.776,131.638,1002.362,118.59,1009.279,84.565z M1188.049,131.638
	L1147.174,9.649h-48.461l-90.497,121.988h41.218l15.484-21.942h75.113l7.357,21.942H1188.049z M1131.316,84.059h-47.04
	l32.749-45.143L1131.316,84.059z M1366.591,131.638L1392,9.649h-37.181l-18.394,88.159l-51.681-88.159h-57.324l-25.392,121.988
	h36.853l18.132-86.967l51.944,86.967H1366.591z M150.328,198.349l6.222-29.855H15.49l-6.222,29.855h51.61L41.642,290.51h36.853
	l19.202-92.161H150.328z M317.32,218.165c0.826-4.152,1.544-8.323,2.206-12.311c7.105-41.513-26.078-37.671-58.123-37.671
	c-15.018,0-30.304,0.311-45.346,0.311c-37.058,0-54.16,6.491-62.965,47.088l-4.022,18.476
	c-12.434,57.155,7.366,56.829,58.419,56.829c14.028,0,28.105-0.376,42.117-0.376c12.778,0,34.736-1.391,46.238-10.987
	C309.969,267.494,313.951,234.4,317.32,218.165z M276.011,237.882c-4.202,20.046-10.317,22.842-29.218,22.842
	c-10.693,0-21.279,0.344-32.047,0.344c-26.814,0-34.432,1.766-28.317-27.698l2.518-12.066c4.185-19.996,10.153-22.955,29.16-22.955
	c10.734,0,21.354-0.36,31.957-0.36c26.797,0,34.523-1.373,28.367,28.237L276.011,237.882z M481.85,248.903l16.767-80.408h-37.05
	l-12.687,60.838l-1.554,7.537c-3.882,18.607-7.742,23.855-27.843,23.855c-8.29,0-16.497,0.344-24.787,0.344
	c-4.332,0-8.674,0-12.802-0.344c-14.763-1.013-15.941-8.715-13.619-22.334c1.251-7.815,2.919-15.696,4.513-23.495
	c3.196-15.336,6.793-30.852,10.039-46.401h-37.23c-3.564,17.266-7.504,34.367-11.019,51.42
	c-6.262,30.149-17.511,70.595,24.362,70.595h67.655C456.359,290.51,475.154,280.928,481.85,248.903z M661.274,212.426
	c5.992-28.743,4.292-43.931-27.517-43.931h-111.63L496.671,290.51h37.245l6.565-31.715c12.474,0,25.179-0.343,37.777-0.343
	c6.784,0,13.701,0.196,20.527,0.49c16.236,1.062,13.333,9.27,10.341,23.392l-1.692,8.175h37.049l2.632-12.721
	c3.891-18.602,5.51-28.887-12.736-35.017C652.29,236.478,657.652,229.888,661.274,212.426z M625.084,213.292
	c-2.738,13.293-11.641,14.323-22.546,14.323h-55.533l6.115-29.267h56.579C621.266,198.349,627.814,200.229,625.084,213.292z
	 M706.899,290.51l25.441-122.016h-37.057l-25.4,122.016H706.899z M890.608,252.173l0.538-2.6
	c4.694-22.498-6.081-29.102-26.716-30.314c-22.415-1.242-45.469-0.196-67.901-1.405c-5.984-0.345-13.407-1.194-11.788-9.108
	c2.108-10.055,10.185-10.398,18.132-10.398h42.216c9.99,0,14.42,1.21,12.965,12.327h36.363l0.817-3.743
	c1.422-7.046,3.94-19.048,1.374-24.967c-4.497-10.824-17.283-13.472-29.038-13.472h-63.177c-29.218,0-50.505,1.422-56.048,36.444
	l-0.572,3.482c-3.744,23.872,3.106,31.72,26.356,33.125c22.939,1.226,46.304,0.376,69.029,1.717
	c6.131,0.36,12.05,1.259,10.398,9.107c-1.586,7.636-11.085,8.356-16.792,8.356H784.97c-7.749,0-10.333-2.469-9.418-10.284h-36.346
	l-1.03,4.202c-6.442,25.763,2.583,35.868,28.71,35.868h61.05C856.845,290.51,883.136,287.91,890.608,252.173z M1050.38,198.349
	l6.214-29.855H915.558l-6.213,29.855h51.585l-19.228,92.161h36.87l19.194-92.161H1050.38z M1182.864,290.51l6.164-29.785h-97.431
	l3.86-18.459h90.186l5.069-24.607h-90.121l4.038-19.31h95.206l6.197-29.855h-132.239l-25.409,122.016H1182.864z M1365.559,212.426
	c6.001-28.743,4.315-43.931-27.535-43.931h-111.62l-25.408,122.016h37.212l6.606-31.715c12.441,0,25.162-0.343,37.751-0.343
	c6.769,0,13.653,0.196,20.487,0.49c16.251,1.062,13.324,9.27,10.381,23.392l-1.732,8.175h37.064l2.65-12.721
	c3.908-18.602,5.543-28.887-12.753-35.017C1356.583,236.478,1361.929,229.888,1365.559,212.426z M1329.376,213.292
	c-2.746,13.293-11.624,14.323-22.53,14.323h-55.54l6.098-29.267h56.603C1325.583,198.349,1332.074,200.229,1329.376,213.292z"/>
</svg>
